<?xml version="1.0" encoding="utf-8"?>
<!-- Generator: Adobe Illustrator 23.0.4, SVG Export Plug-In . SVG Version: 6.00 Build 0)  -->
<svg version="1.1" id="Layer_1" xmlns="http://www.w3.org/2000/svg" xmlns:xlink="http://www.w3.org/1999/xlink" x="0px" y="0px"
	 viewBox="0 0 24 24" style="enable-background:new 0 0 24 24;" xml:space="preserve">
<style type="text/css">
	.st0{fill:none;}
	.st1{fill:#FFFFFF;}
</style>
<path class="st0" d="M0,0h24v24H0V0z"/>
<g>
	<polygon points="5.1,12.6 4.4,11.6 13.8,2.2 16.4,4.8 9.4,11.7 16.4,18.7 13.8,21.3 	"/>
	<path class="st1" d="M13.8,3.3l1.5,1.5l-7,6.9l7,7l-1.5,1.5l-8.1-8.1l-0.3-0.4L13.8,3.3 M13.8,1.2l-1.1,1.1l-8.4,8.4l-0.9,0.9
		l0.8,1L4.5,13l0.1,0.1l0.1,0.1l8.1,8.1l1.1,1.1l1.1-1.1l1.5-1.5l1.1-1.1l-1.1-1.1l-5.9-5.9l5.9-5.8l1.1-1.1l-1.1-1.1l-1.5-1.5
		L13.8,1.2L13.8,1.2z"/>
</g>
</svg>
